<svg xmlns="http://www.w3.org/2000/svg" width="30" height="37" viewBox="0 0 30 37" fill="none">
  <path d="M10.285 21.1477C8.38015 14.7477 12.4973 4.38257 14.794 1.1568e-07C14.794 1.1568e-07 18.9735 11.4831 18.5145 17.5613C18.0555 23.6394 12.1898 27.5477 10.285 21.1477Z" fill="url(#paint0_linear_12_4)"/>
  <path d="M18.4661 33.4463C16.8148 27.8785 20.4925 18.8289 22.5378 15C22.5378 15 26.1727 24.9866 25.7406 30.2846C25.3085 35.5825 20.1175 39.0141 18.4661 33.4463Z" fill="url(#paint1_linear_12_4)"/>
  <path d="M3.47694 27.7396C2.42712 24.1977 4.77734 18.4374 6.08367 16C6.08367 16 8.39573 22.3523 8.11722 25.7236C7.83871 29.0949 4.52677 31.2814 3.47694 27.7396Z" fill="url(#paint2_linear_12_4)"/>
  <defs>
    <linearGradient id="paint0_linear_12_4" x1="9.39701" y1="1.96435" x2="17.1514" y2="23.2694" gradientUnits="userSpaceOnUse">
      <stop stop-color="#D9D9D9"/>
      <stop offset="1" stop-color="#D9D9D9" stop-opacity="0"/>
    </linearGradient>
    <linearGradient id="paint1_linear_12_4" x1="17.7689" y1="16.7357" x2="24.5127" y2="35.2642" gradientUnits="userSpaceOnUse">
      <stop stop-color="#D9D9D9"/>
      <stop offset="1" stop-color="#D9D9D9" stop-opacity="0"/>
    </linearGradient>
    <linearGradient id="paint2_linear_12_4" x1="3.04184" y1="17.1071" x2="7.33149" y2="28.8929" gradientUnits="userSpaceOnUse">
      <stop stop-color="#D9D9D9"/>
      <stop offset="1" stop-color="#D9D9D9" stop-opacity="0"/>
    </linearGradient>
  </defs>
</svg>