<svg xmlns="http://www.w3.org/2000/svg" width="36" height="33" viewBox="0 0 36 33" fill="none">
  <path d="M13.0956 24.5262C11.6327 20.2942 15.0811 17.6065 18.3709 12.7872C18.3709 12.7872 23.7232 17.9698 22.4096 23.199C21.096 28.4283 14.5585 28.7583 13.0956 24.5262Z" stroke="white" stroke-width="0.5"/>
  <path fill-rule="evenodd" clip-rule="evenodd" d="M32.7033 25.1385H33.2719L35.0981 28.5093C36.181 30.5082 34.7337 32.9383 32.4603 32.9383H24.3736V32.4383H32.4603C34.3548 32.4383 35.5609 30.4132 34.6584 28.7474L32.7033 25.1385ZM11.1019 32.4383H3.53973C1.64524 32.4383 0.439155 30.4132 1.34158 28.7474L3.29673 25.1385H2.72807L0.90195 28.5092C-0.180959 30.5082 1.26634 32.9383 3.53973 32.9383H11.1019V32.4383ZM12.9411 7.3362L15.8019 2.05567C16.7475 0.310137 19.2525 0.310139 20.1982 2.05567L23.0589 7.3362H23.6275L20.6378 1.8175C19.503 -0.277136 16.497 -0.277142 15.3622 1.8175L12.3725 7.3362H12.9411Z" fill="white"/>
</svg>