<svg xmlns="http://www.w3.org/2000/svg" width="147" height="158" viewBox="0 0 147 158" fill="none">
  <path fill-rule="evenodd" clip-rule="evenodd" d="M56 112C86.9279 112 112 86.9279 112 56C112 25.0721 86.9279 0 56 0C25.0721 0 0 25.0721 0 56C0 86.9279 25.0721 112 56 112ZM56 93C76.4345 93 93 76.4345 93 56C93 35.5655 76.4345 19 56 19C35.5655 19 19 35.5655 19 56C19 76.4345 35.5655 93 56 93Z" fill="#D9D9D9"/>
  <path d="M131.227 154.927C134.5 158.667 140.186 159.046 143.927 155.773C147.667 152.5 148.046 146.814 144.773 143.073L131.227 154.927ZM75.2268 90.9265L131.227 154.927L144.773 143.073L88.7732 79.0735L75.2268 90.9265Z" fill="#D9D9D9"/>
</svg>