<svg xmlns="http://www.w3.org/2000/svg" width="40" height="33" viewBox="0 0 40 33" fill="none">
  <path d="M0 12.2332H11.4241M0 21.1953H21.7057M21.7057 14.4738H33.701" stroke="white" stroke-width="0.5"/>
  <path d="M7.09742 3.77539C7.85517 2.91498 8.88397 2.32704 10.0209 2.10469C11.1579 1.88234 12.3379 2.03828 13.3743 2.54782C14.4107 3.05736 15.2441 3.89137 15.7425 4.91778C16.241 5.94419 16.376 7.10434 16.1263 8.2145C15.8765 9.32466 15.2561 10.3214 14.3635 11.0468C13.4709 11.7722 12.357 12.1849 11.1982 12.2195" stroke="white" stroke-width="0.5"/>
  <path d="M28.8031 6.07193C29.5609 5.21152 30.5897 4.62358 31.7266 4.40123C32.8636 4.17888 34.0437 4.33482 35.08 4.84436C36.1164 5.35389 36.9498 6.18791 37.4483 7.21432C37.9467 8.24073 38.0818 9.40088 37.832 10.511C37.5822 11.6212 36.9619 12.6179 36.0692 13.3433C35.1766 14.0688 34.0627 14.4815 32.9039 14.5161" stroke="white" stroke-width="0.5"/>
  <path d="M20.4663 21.2594C21.6209 21.1567 22.7775 21.4345 23.7528 22.0491C24.7282 22.6636 25.4666 23.5797 25.8511 24.6521C26.2357 25.7246 26.2444 26.8923 25.8758 27.9702C25.5073 29.0481 24.7826 29.9746 23.8165 30.603C22.8504 31.2314 21.6981 31.5259 20.5421 31.4397" stroke="white" stroke-width="0.5"/>
</svg>